<svg width="50" height="50" viewBox="0 0 50 50" fill="none" xmlns="http://www.w3.org/2000/svg">
<path fill-rule="evenodd" clip-rule="evenodd" d="M33.6619 17.1517C33.6619 22.0469 29.7594 25.972 24.8925 25.972C20.0256 25.972 16.1232 22.0469 16.1232 17.1517C16.1232 12.2546 20.0256 8.33325 24.8925 8.33325C29.7594 8.33325 33.6619 12.2546 33.6619 17.1517ZM24.8925 41.6666C17.7442 41.6666 11.6405 40.5333 11.6405 36.0003C11.6405 31.4653 17.705 30.2908 24.8925 30.2908C32.0408 30.2908 38.1445 31.4241 38.1445 35.959C38.1445 40.492 32.08 41.6666 24.8925 41.6666ZM37.4093 17.3108C37.4093 19.8062 36.665 22.1309 35.3592 24.0635C35.2249 24.2624 35.3443 24.5307 35.5812 24.5719C35.9076 24.6282 36.2453 24.6601 36.5885 24.6695C40.0116 24.7596 43.0839 22.5437 43.9327 19.2077C45.19 14.2525 41.4983 9.80387 36.7974 9.80387C36.2863 9.80387 35.7976 9.85828 35.3219 9.95585C35.2566 9.97086 35.1876 10.0009 35.1503 10.059C35.1055 10.1303 35.1391 10.226 35.1839 10.2879C36.596 12.2787 37.4093 14.7065 37.4093 17.3108ZM43.0783 28.1511C45.3784 28.6033 46.8913 29.5264 47.518 30.8679C48.0478 31.9693 48.0478 33.247 47.518 34.3465C46.5592 36.4273 43.4682 37.0953 42.2669 37.2679C42.0188 37.3054 41.8192 37.0896 41.8453 36.8401C42.459 31.0743 37.5772 28.3406 36.3143 27.7121C36.2602 27.6839 36.249 27.6408 36.2546 27.6145C36.2583 27.5957 36.2807 27.5657 36.3218 27.5601C39.0546 27.5094 41.9926 27.8847 43.0783 28.1511ZM13.4093 24.6693C13.7526 24.6599 14.0884 24.6299 14.4167 24.5718C14.6536 24.5305 14.773 24.2622 14.6387 24.0633C13.3329 22.1307 12.5886 19.806 12.5886 17.3106C12.5886 14.7064 13.4019 12.2785 14.814 10.2878C14.8588 10.2258 14.8905 10.1302 14.8476 10.0589C14.8103 10.0026 14.7394 9.97067 14.676 9.95566C14.1984 9.85809 13.7097 9.80368 13.1985 9.80368C8.49768 9.80368 4.80601 14.2523 6.06517 19.2075C6.91394 22.5435 9.98629 24.7594 13.4093 24.6693ZM13.7423 27.6134C13.7479 27.6415 13.7367 27.6828 13.6845 27.7128C12.4197 28.3414 7.53793 31.0751 8.15165 36.839C8.17777 37.0904 7.98003 37.3043 7.73193 37.2686C6.5306 37.096 3.43959 36.4281 2.48077 34.3473C1.94912 33.2459 1.94912 31.9701 2.48077 30.8687C3.10755 29.5272 4.61854 28.604 6.91861 28.15C8.00615 27.8854 10.9423 27.5102 13.677 27.5608C13.7181 27.5665 13.7386 27.5965 13.7423 27.6134Z" fill="#F1F3F5"/>
</svg>
