<svg width="92" height="92" viewBox="0 0 92 92" fill="none" xmlns="http://www.w3.org/2000/svg">
<path fill-rule="evenodd" clip-rule="evenodd" d="M66.5674 18.6176C61.664 14.3504 54.2297 14.8662 49.9626 19.7696L37.3846 34.2231C39.6734 38.1074 41.754 40.8973 44.1237 43.1193C47.7621 40.1301 52.4226 38.3334 57.5 38.3334C59.801 38.3334 62.019 38.7027 64.0959 39.3862L67.7195 35.2224C71.9866 30.319 71.4708 22.8847 66.5674 18.6176ZM17.1221 51.6675L47.0709 17.2532C52.7278 10.7527 62.5834 10.0689 69.0839 15.7259C75.5843 21.3828 76.2681 31.2384 70.6111 37.7389L65.2253 43.9278L63.9584 43.4159C61.9661 42.6109 59.7873 42.1667 57.5 42.1667C52.736 42.1667 48.4261 44.0954 45.3024 47.2191C42.1787 50.3428 40.25 54.6527 40.25 59.4167C40.25 62.5537 41.0856 65.4897 42.5451 68.0205L43.2282 69.2049L42.3306 70.2363C39.4237 73.5766 35.6061 76.2058 31.4242 77.1195C27.1631 78.0505 22.6514 77.1632 18.6494 73.6805C12.1489 68.0235 11.4651 58.168 17.1221 51.6675Z" fill="#F1F3F5"/>
<path fill-rule="evenodd" clip-rule="evenodd" d="M63.038 21.5075C63.3024 20.4825 62.6858 19.4372 61.6608 19.1728C55.5697 17.6014 51.8536 21.8768 50.3714 23.5821C50.3488 23.6082 50.3266 23.6336 50.305 23.6585C49.6101 24.457 49.6941 25.6677 50.4926 26.3626C51.2912 27.0575 52.5018 26.9735 53.1967 26.1749C54.756 24.3831 57.0098 21.9318 60.7033 22.8846C61.7282 23.149 62.7735 22.5325 63.038 21.5075Z" fill="#F1F3F5"/>
<path fill-rule="evenodd" clip-rule="evenodd" d="M57.5013 42.1666C47.9744 42.1666 40.2513 49.8897 40.2513 59.4166C40.2513 68.9435 47.9744 76.6666 57.5013 76.6666C67.0282 76.6666 74.7513 68.9435 74.7513 59.4166C74.7513 49.8897 67.0282 42.1666 57.5013 42.1666ZM36.418 59.4166C36.418 47.7726 45.8573 38.3333 57.5013 38.3333C69.1453 38.3333 78.5846 47.7726 78.5846 59.4166C78.5846 71.0606 69.1453 80.4999 57.5013 80.4999C45.8573 80.4999 36.418 71.0606 36.418 59.4166Z" fill="#F1F3F5"/>
<path fill-rule="evenodd" clip-rule="evenodd" d="M42.6875 63.3853C42.4135 62.3628 43.0203 61.3118 44.0428 61.0379L69.9618 54.0929C70.9843 53.8189 72.0352 54.4257 72.3092 55.4482C72.5832 56.4707 71.9764 57.5216 70.9539 57.7956L45.0349 64.7406C44.0124 65.0146 42.9614 64.4078 42.6875 63.3853Z" fill="#F1F3F5"/>
</svg>
