<svg width="132" height="132" viewBox="0 0 132 132" fill="none" xmlns="http://www.w3.org/2000/svg">
<path fill-rule="evenodd" clip-rule="evenodd" d="M72.6773 28.2887C71.7514 27.6863 70.5125 27.9486 69.9102 28.8745C66.8036 33.65 65.4878 38.3788 65.8087 42.9764C66.1286 47.5599 68.0609 51.8131 71.1035 55.6801C72.9812 58.0665 74.9481 60.7341 76.0271 63.539C77.0783 66.2717 77.2283 68.9665 75.7037 71.638C74.1557 74.3509 71.7495 75.5832 68.8708 76.0359C65.9107 76.5013 62.6164 76.1085 59.6152 75.6321C54.737 74.8577 50.0815 75.3206 45.9516 77.3518C41.8144 79.3865 38.3802 82.9087 35.8059 87.9445C35.3031 88.928 35.6928 90.1329 36.6763 90.6357C37.6598 91.1385 38.8647 90.7487 39.3675 89.7652C41.6212 85.3567 44.4839 82.5311 47.7169 80.9412C50.9571 79.3476 54.745 78.909 58.988 79.5826C62.005 80.0616 65.8516 80.5598 69.4921 79.9873C73.214 79.4021 76.8684 77.6677 79.1779 73.6206C81.4631 69.6159 81.1064 65.6019 79.7604 62.1029C78.4421 58.6759 76.1214 55.5888 74.2471 53.2066C71.5741 49.8095 70.0503 46.2995 69.799 42.6979C69.5486 39.1105 70.5462 35.2322 73.2631 31.0558C73.8655 30.1299 73.6032 28.891 72.6773 28.2887Z" fill="#F1F3F5"/>
<path fill-rule="evenodd" clip-rule="evenodd" d="M95.3199 41.3623C96.3044 41.863 96.6967 43.067 96.196 44.0516C93.6137 49.1297 90.1763 52.6337 86.0342 54.6546C81.9048 56.6693 77.2552 57.1224 72.3851 56.4209C69.3795 55.988 66.0858 55.6184 63.1173 56.0865C60.225 56.5424 57.8163 57.7599 56.265 60.416C54.6896 63.1131 54.8255 65.8131 55.8728 68.5324C56.9498 71.3287 58.937 73.9852 60.8503 76.3461C63.96 80.1835 65.8868 84.4468 66.1928 89.039C66.4993 93.6393 65.166 98.3744 62.0921 103.122C61.4917 104.049 60.2534 104.314 59.3262 103.714C58.3991 103.113 58.1341 101.875 58.7345 100.948C61.4256 96.7917 62.4412 92.8997 62.2017 89.3049C61.9616 85.702 60.4475 82.2023 57.7426 78.8645C55.8194 76.4913 53.4646 73.4091 52.1401 69.9701C50.786 66.4542 50.4608 62.4222 52.811 58.3986C55.1365 54.4171 58.7911 52.7191 62.4943 52.1353C66.1213 51.5634 69.9552 52.0296 72.9553 52.4618C77.2339 53.0781 81.0355 52.6427 84.2802 51.0596C87.5123 49.4827 90.3721 46.6796 92.6306 42.2385C93.1312 41.2539 94.3353 40.8616 95.3199 41.3623Z" fill="#F1F3F5"/>
<path fill-rule="evenodd" clip-rule="evenodd" d="M42.3398 86.9806C42.8921 86.024 44.1153 85.6963 45.0719 86.2485L58.9283 94.2485C59.8849 94.8008 60.2126 96.024 59.6604 96.9806C59.1081 97.9372 57.8849 98.2649 56.9283 97.7126L43.0719 89.7126C42.1153 89.1604 41.7876 87.9372 42.3398 86.9806Z" fill="#F1F3F5"/>
<path fill-rule="evenodd" clip-rule="evenodd" d="M72.8047 42.2152C73.357 41.2586 74.5802 40.9309 75.5367 41.4832L82.4649 45.4832C83.4215 46.0354 83.7493 47.2586 83.197 48.2152C82.6447 49.1718 81.4215 49.4995 80.4649 48.9473L73.5367 44.9473C72.5802 44.395 72.2524 43.1718 72.8047 42.2152Z" fill="#F1F3F5"/>
<path fill-rule="evenodd" clip-rule="evenodd" d="M72.3398 35.0192C72.8921 34.0626 74.1153 33.7348 75.0719 34.2871L88.9283 42.2871C89.8849 42.8394 90.2126 44.0626 89.6604 45.0192C89.1081 45.9757 87.8849 46.3035 86.9283 45.7512L73.0719 37.7512C72.1153 37.1989 71.7876 35.9757 72.3398 35.0192Z" fill="#F1F3F5"/>
<path fill-rule="evenodd" clip-rule="evenodd" d="M48.8047 83.7845C49.357 82.828 50.5802 82.5002 51.5367 83.0525L58.4649 87.0525C59.4215 87.6048 59.7493 88.828 59.197 89.7845C58.6447 90.7411 57.4215 91.0689 56.4649 90.5166L49.5367 86.5166C48.5802 85.9643 48.2524 84.7411 48.8047 83.7845Z" fill="#F1F3F5"/>
<path fill-rule="evenodd" clip-rule="evenodd" d="M63.6623 58.492C64.2146 57.5354 65.4377 57.2077 66.3943 57.76L72.9376 61.5378C73.8942 62.09 74.222 63.3132 73.6697 64.2698C73.1174 65.2264 71.8942 65.5541 70.9376 65.0019L64.3943 61.2241C63.4377 60.6718 63.11 59.4486 63.6623 58.492ZM57.5573 61.5106C58.1096 60.554 59.3328 60.2263 60.2893 60.7786L73.3759 68.3341C74.3325 68.8864 74.6603 70.1096 74.108 71.0662C73.5557 72.0228 72.3325 72.3505 71.3759 71.7982L58.2893 64.2427C57.3328 63.6904 57.005 62.4672 57.5573 61.5106ZM57.9956 68.307C58.5479 67.3504 59.7711 67.0227 60.7277 67.5749L67.271 71.3527C68.2275 71.905 68.5553 73.1282 68.003 74.0848C67.4507 75.0414 66.2275 75.3691 65.271 74.8168L58.7277 71.039C57.7711 70.4868 57.4433 69.2636 57.9956 68.307Z" fill="#F1F3F5"/>
</svg>
