<svg width="44" height="44" viewBox="0 0 44 44" fill="none" xmlns="http://www.w3.org/2000/svg">
<g clip-path="url(#clip0_14_953)">
<path d="M42.9062 13.8715H30.8777V7.17429C30.8762 5.47058 30.1989 3.83705 28.9945 2.63208C27.79 1.42711 26.1568 0.749105 24.4531 0.746826H14.9525C14.6641 0.746826 14.3875 0.861402 14.1835 1.06535C13.9796 1.2693 13.865 1.54591 13.865 1.83433V13.8858H7.17069C5.46774 13.8873 3.83494 14.5643 2.63051 15.7682C1.42607 16.9721 0.748373 18.6046 0.746094 20.3075V29.811C0.746094 30.0994 0.860671 30.376 1.06462 30.58C1.26856 30.7839 1.54517 30.8985 1.8336 30.8985H13.865V37.5928C13.8673 39.296 14.5449 40.9288 15.7492 42.1332C16.9536 43.3375 18.5864 44.0151 20.2896 44.0174H29.7902C30.0786 44.0174 30.3552 43.9029 30.5592 43.6989C30.7631 43.495 30.8777 43.2183 30.8777 42.9299V30.8842H37.572C39.276 30.8819 40.9095 30.204 42.1144 28.9991C43.3193 27.7942 43.9972 26.1607 43.9995 24.4567V14.959C43.9995 14.8157 43.9712 14.6738 43.9162 14.5415C43.8611 14.4092 43.7805 14.289 43.6789 14.188C43.5773 14.0869 43.4568 14.0069 43.3242 13.9526C43.1916 13.8983 43.0495 13.8707 42.9062 13.8715ZM21.3255 28.7092C20.9384 28.7077 20.5561 28.6242 20.2037 28.4641C19.8513 28.3041 19.5369 28.0711 19.2811 27.7806C19.0254 27.4901 18.8341 27.1487 18.72 26.7788C18.6059 26.409 18.5715 26.0192 18.6191 25.6351C18.6667 25.251 18.7953 24.8813 18.9962 24.5506C19.1971 24.2198 19.4659 23.9354 19.7849 23.7161C20.1038 23.4968 20.4656 23.3476 20.8464 23.2785C21.2272 23.2093 21.6183 23.2216 21.994 23.3147C22.176 23.3606 22.3668 23.3585 22.5478 23.3086C22.7287 23.2587 22.8936 23.1627 23.0264 23.03C23.1591 22.8972 23.2551 22.7323 23.305 22.5514C23.3549 22.3704 23.357 22.1796 23.3111 21.9976C23.2161 21.6214 23.2023 21.2293 23.2704 20.8473C23.3385 20.4653 23.487 20.1021 23.7062 19.7819C23.9253 19.4617 24.21 19.1917 24.5414 18.9899C24.8728 18.788 25.2433 18.659 25.6284 18.6112C26.0135 18.5635 26.4043 18.5981 26.775 18.7129C27.1456 18.8277 27.4877 19.0199 27.7784 19.2769C28.0691 19.5339 28.3018 19.8498 28.4612 20.2036C28.6205 20.5574 28.7029 20.941 28.7027 21.3291V28.7092H21.3255ZM41.8245 24.4624C41.8237 25.59 41.3754 26.6712 40.5781 27.4685C39.7808 28.2659 38.6996 28.7141 37.572 28.7149H30.8777V21.3319C30.8851 20.0478 30.3891 18.8119 29.4961 17.8891C28.603 16.9664 27.3839 16.4303 26.1003 16.3958C24.8166 16.3612 23.5705 16.831 22.6291 17.7044C21.6877 18.5778 21.126 19.7853 21.0643 21.0679C20.1758 21.1154 19.3169 21.4033 18.5794 21.9011C17.8418 22.3989 17.2535 23.0878 16.8771 23.8941C16.5008 24.7004 16.3507 25.5938 16.4428 26.4788C16.5349 27.3638 16.8658 28.2071 17.4001 28.9186C17.6803 29.294 18.0138 29.6266 18.3901 29.9057C19.2364 30.5418 20.2667 30.8852 21.3255 30.8842H28.7027V41.8281H20.2896C19.1628 41.8273 18.0823 41.3793 17.2855 40.5826C16.4887 39.7858 16.0408 38.7053 16.04 37.5785V29.7967C16.0403 29.544 15.952 29.2993 15.7904 29.1051C15.769 29.078 15.746 29.0521 15.7215 29.0277C15.6206 28.9266 15.5007 28.8464 15.3688 28.7917C15.2368 28.7371 15.0953 28.709 14.9525 28.7092H2.9211V20.2932C2.92262 19.1669 3.37092 18.0871 4.16763 17.291C4.96433 16.4948 6.04436 16.0472 7.17069 16.0465H14.9525C15.0953 16.0465 15.2367 16.0184 15.3687 15.9637C15.5006 15.909 15.6205 15.8289 15.7215 15.728C15.8225 15.627 15.9026 15.5071 15.9572 15.3751C16.0119 15.2432 16.04 15.1018 16.04 14.959V2.92183H24.4531C25.58 2.92411 26.66 3.37296 27.4565 4.17004C28.2531 4.96712 28.7012 6.04743 28.7027 7.17429V14.959C28.7027 15.2474 28.8173 15.524 29.0212 15.728C29.2252 15.9319 29.5018 16.0465 29.7902 16.0465H41.8245V24.4624Z" fill="url(#paint0_linear_14_953)"/>
<path style="mix-blend-mode:overlay" d="M28.7031 30.8843H30.8781V32.8929L28.7031 39.8053V30.8843Z" fill="url(#paint1_linear_14_953)"/>
<path style="mix-blend-mode:overlay" d="M28.7031 28.7092V27.8943L30.8781 23.375V28.7092H28.7031Z" fill="url(#paint2_linear_14_953)"/>
</g>
<defs>
<linearGradient id="paint0_linear_14_953" x1="34.9666" y1="7.03082" x2="9.77611" y2="37.722" gradientUnits="userSpaceOnUse">
<stop stop-color="#6156C0"/>
<stop offset="1" stop-color="#71C8CB"/>
</linearGradient>
<linearGradient id="paint1_linear_14_953" x1="29.7132" y1="30.6002" x2="29.8193" y2="37.0334" gradientUnits="userSpaceOnUse">
<stop/>
<stop offset="1" stop-opacity="0"/>
</linearGradient>
<linearGradient id="paint2_linear_14_953" x1="29.8825" y1="30.2931" x2="29.7763" y2="25.4008" gradientUnits="userSpaceOnUse">
<stop/>
<stop offset="1" stop-opacity="0"/>
</linearGradient>
<clipPath id="clip0_14_953">
<rect width="43.2534" height="43.2563" fill="white" transform="translate(0.746094 0.74707)"/>
</clipPath>
</defs>
</svg>
