<svg width="42" height="42" viewBox="0 0 42 42" fill="none" xmlns="http://www.w3.org/2000/svg">
<path fill-rule="evenodd" clip-rule="evenodd" d="M31.2753 21.2386C31.2753 20.494 31.2085 19.7781 31.0844 19.0908H21.1953V23.1524H26.8462C26.6028 24.4649 25.863 25.577 24.751 26.3215V28.9561H28.1444C30.1299 27.1281 31.2753 24.4363 31.2753 21.2386Z" fill="#4285F4"/>
<path fill-rule="evenodd" clip-rule="evenodd" d="M21.1957 31.4999C24.0307 31.4999 26.4075 30.5597 28.1448 28.956L24.7514 26.3215C23.8112 26.9515 22.6084 27.3237 21.1957 27.3237C18.4609 27.3237 16.1461 25.4767 15.3205 22.9949H11.8125V25.7153C13.5402 29.1469 17.0911 31.4999 21.1957 31.4999Z" fill="#34A853"/>
<path fill-rule="evenodd" clip-rule="evenodd" d="M15.3201 22.9949C15.1101 22.3649 14.9908 21.6919 14.9908 20.9999C14.9908 20.3078 15.1101 19.6349 15.3201 19.0049V16.2844H11.8121C11.101 17.7019 10.6953 19.3056 10.6953 20.9999C10.6953 22.6942 11.101 24.2979 11.8121 25.7154L15.3201 22.9949Z" fill="#FBBC05"/>
<path fill-rule="evenodd" clip-rule="evenodd" d="M21.1957 14.6761C22.7373 14.6761 24.1214 15.2059 25.2096 16.2464L28.2212 13.2348C26.4028 11.5405 24.0259 10.5 21.1957 10.5C17.0911 10.5 13.5402 12.853 11.8125 16.2846L15.3205 19.005C16.1461 16.5232 18.4609 14.6761 21.1957 14.6761Z" fill="#EA4335"/>
</svg>
