<svg width="80" height="80" viewBox="0 0 80 80" fill="none" xmlns="http://www.w3.org/2000/svg">
<path d="M8.33203 31.1293C8.33203 20.4744 16.4488 11.6667 26.6787 11.6667C31.9598 11.6667 36.6815 14.033 39.9993 17.7778C43.3234 14.032 48.065 11.6667 53.3187 11.6667C63.5486 11.6667 71.6654 20.4744 71.6654 31.1293C71.6654 33.5033 71.3489 35.9199 70.7558 38.3334H60.6891L56.9948 34.6391C55.7882 33.4325 53.754 33.7626 52.9909 35.2889L49.5421 42.1865L46.8728 39.5172C45.7804 38.4248 43.9686 38.5747 43.0707 39.8318L37.458 47.6896L33.7769 31.7379C33.262 29.5067 30.2676 29.0842 29.1555 31.086L23.1233 41.944L20.2419 38.1021C19.329 36.885 17.5499 36.7585 16.4741 37.8343L14.3083 40.0001H9.42633C8.71308 37.1526 8.33203 34.188 8.33203 31.1293Z" fill="#F1F3F5"/>
<path d="M10.4294 43.3334C14.9453 56.15 26.252 66.2228 39.4079 71.2102C39.7885 71.3545 40.2089 71.3545 40.5895 71.2102C49.2418 67.9301 56.983 61.8244 62.5652 54.6339C65.6985 50.5979 68.1856 46.1749 69.7624 41.6667H60.3439C59.6808 41.6667 59.0449 41.4034 58.5761 40.9345L55.4553 37.8137L52.0065 44.7113C51.2434 46.2376 49.2092 46.5676 48.0026 45.361L45.2114 42.5698L39.096 51.1313C37.8442 52.8838 35.11 52.3389 34.6257 50.2403L31.0164 34.6L25.413 44.6861C24.5334 46.2695 22.3144 46.421 21.2277 44.972L18.1517 40.8708L16.4213 42.6012C15.9524 43.07 15.3166 43.3334 14.6535 43.3334H10.4294Z" fill="#F1F3F5"/>
</svg>
