<svg width="96" height="96" viewBox="0 0 96 96" fill="none" xmlns="http://www.w3.org/2000/svg">
<g id="Virus">
<path id="Vector" fill-rule="evenodd" clip-rule="evenodd" d="M48 8C50.7614 8 53 10.2386 53 13C53 15.0503 51.7659 16.8124 50 17.584V23.0788C55.4005 23.5063 60.318 25.6499 64.2071 28.9644L68.3444 24.8271C68.1221 24.2612 68 23.6448 68 23C68 20.2386 70.2386 18 73 18C75.7614 18 78 20.2386 78 23C78 25.7614 75.7614 28 73 28C72.3551 28 71.7388 27.8779 71.1728 27.6556L67.0355 31.7928C70.35 35.682 72.4937 40.5995 72.9212 46H78.416C79.1876 44.2341 80.9497 43 83 43C85.7614 43 88 45.2386 88 48C88 50.7614 85.7614 53 83 53C80.9497 53 79.1876 51.7659 78.416 50H72.9212C72.4937 55.4005 70.3501 60.318 67.0356 64.2071L71.1729 68.3444C71.7388 68.1221 72.3552 68 73 68C75.7614 68 78 70.2386 78 73C78 75.7614 75.7614 78 73 78C70.2386 78 68 75.7614 68 73C68 72.3551 68.1221 71.7388 68.3444 71.1728L64.2072 67.0355C60.318 70.35 55.4005 72.4937 50 72.9212V78.416C51.7659 79.1876 53 80.9497 53 83C53 85.7614 50.7614 88 48 88C45.2386 88 43 85.7614 43 83C43 80.9497 44.2341 79.1876 46 78.416V72.9212C40.5995 72.4937 35.682 70.3501 31.7929 67.0356L27.6556 71.1729C27.8779 71.7388 28 72.3552 28 73C28 75.7614 25.7614 78 23 78C20.2386 78 18 75.7614 18 73C18 70.2386 20.2386 68 23 68C23.6449 68 24.2612 68.1221 24.8272 68.3444L28.9645 64.2072C25.65 60.318 23.5063 55.4005 23.0788 50H17.584C16.8124 51.7659 15.0503 53 13 53C10.2386 53 8 50.7614 8 48C8 45.2386 10.2386 43 13 43C15.0503 43 16.8124 44.2341 17.584 46H23.0788C23.5063 40.5995 25.6499 35.682 28.9644 31.7929L24.8271 27.6556C24.2612 27.8779 23.6448 28 23 28C20.2386 28 18 25.7614 18 23C18 20.2386 20.2386 18 23 18C25.7614 18 28 20.2386 28 23C28 23.6449 27.8779 24.2612 27.6556 24.8272L31.7928 28.9645C35.682 25.65 40.5995 23.5063 46 23.0788V17.584C44.2341 16.8124 43 15.0503 43 13C43 10.2386 45.2386 8 48 8ZM46 40C48.2091 40 50 38.2091 50 36C50 33.7909 48.2091 32 46 32C43.7909 32 42 33.7909 42 36C42 38.2091 43.7909 40 46 40ZM42 52C42 54.2091 40.2091 56 38 56C35.7909 56 34 54.2091 34 52C34 49.7909 35.7909 48 38 48C40.2091 48 42 49.7909 42 52ZM60 60C62.2091 60 64 58.2091 64 56C64 53.7909 62.2091 52 60 52C57.7909 52 56 53.7909 56 56C56 58.2091 57.7909 60 60 60Z" fill="#F1F3F5"/>
</g>
</svg>
