<svg width="56" height="56" viewBox="0 0 56 56" fill="none" xmlns="http://www.w3.org/2000/svg">
<path fill-rule="evenodd" clip-rule="evenodd" d="M53.3275 16.723V39.1382C53.3275 47.4432 48.13 53.3007 39.825 53.3007H16.0375C7.7325 53.3007 2.5625 47.4432 2.5625 39.1382V16.723C2.5625 8.41798 7.76 2.56323 16.0375 2.56323H39.825C48.13 2.56323 53.3275 8.41798 53.3275 16.723Z" stroke="#F3F5FC" stroke-width="4.125" stroke-linecap="round" stroke-linejoin="round"/>
<path d="M9.52344 40.1853L13.7254 35.7496C15.1857 34.2013 17.6194 34.1271 19.1704 35.5846C19.2172 35.6313 21.7472 38.2026 21.7472 38.2026C23.2734 39.7563 25.7677 39.7811 27.3214 38.2576C27.4232 38.1586 33.7399 30.4971 33.7399 30.4971C35.3679 28.5198 38.2912 28.2366 40.2712 29.8673C40.4032 29.9773 46.3707 36.1016 46.3707 36.1016" stroke="#F3F5FC" stroke-width="4.125" stroke-linecap="round" stroke-linejoin="round"/>
<path fill-rule="evenodd" clip-rule="evenodd" d="M23.3579 20.1162C23.3579 22.781 21.1992 24.9397 18.5344 24.9397C15.8697 24.9397 13.7109 22.781 13.7109 20.1162C13.7109 17.4515 15.8697 15.2927 18.5344 15.2927C21.1992 15.2955 23.3579 17.4515 23.3579 20.1162Z" stroke="#F3F5FC" stroke-width="4.125" stroke-linecap="round" stroke-linejoin="round"/>
</svg>
